<svg width="840" height="1403.7666666666667" viewBox="0 0 840 1403.7666666666667" xmlns="http://www.w3.org/2000/svg" font-family="'Space Grotesk','Segoe UI',system-ui,-apple-system,sans-serif">
<defs>
<linearGradient id="g_claude" x1="0" y1="0" x2="1" y2="0"><stop offset="0" stop-color="#D97757"/><stop offset="1" stop-color="#E8A06F"/></linearGradient>
<linearGradient id="g_blue" x1="0" y1="0" x2="1" y2="0"><stop offset="0" stop-color="#58A6FF"/><stop offset="1" stop-color="#79b8ff"/></linearGradient>
<linearGradient id="g_purple" x1="0" y1="0" x2="1" y2="0"><stop offset="0" stop-color="#8B6FC9"/><stop offset="1" stop-color="#A371F7"/></linearGradient>
<linearGradient id="g_ring" x1="0" y1="0" x2="0" y2="1"><stop offset="0" stop-color="#D97757"/><stop offset="1" stop-color="#E8A06F"/></linearGradient>
<linearGradient id="g_peak" x1="0" y1="0" x2="0" y2="1"><stop offset="0" stop-color="#58A6FF"/><stop offset="1" stop-color="#A371F7"/></linearGradient>
<radialGradient id="glow_o" cx="50%" cy="50%" r="50%"><stop offset="0" stop-color="#D97757" stop-opacity="0.16"/><stop offset="0.68" stop-color="#D97757" stop-opacity="0"/></radialGradient>
<radialGradient id="glow_b" cx="50%" cy="50%" r="50%"><stop offset="0" stop-color="#58A6FF" stop-opacity="0.12"/><stop offset="0.7" stop-color="#58A6FF" stop-opacity="0"/></radialGradient>
</defs>
<rect x="1" y="1" width="838" height="1402" rx="18" fill="#0d1117" stroke="#20262e"/>
<circle cx="720" cy="40" r="210" fill="url(#glow_o)"/>
<circle cx="90" cy="1402" r="180" fill="url(#glow_b)"/>
<rect x="36.0" y="42.0" width="48.0" height="48.0" rx="13" fill="url(#g_blue)"/>
<text x="60.0" y="72.0" font-family="'Space Grotesk','Segoe UI',system-ui,-apple-system,sans-serif" font-size="21" font-weight="700" fill="#fff" text-anchor="middle">R</text>
<text x="98.0" y="62.0" font-family="'Space Grotesk','Segoe UI',system-ui,-apple-system,sans-serif" font-size="23" font-weight="700" fill="#f0f6fc" text-anchor="start" letter-spacing="-0.2">devRavit</text>
<text x="98.0" y="82.0" font-family="'JetBrains Mono',ui-monospace,'SF Mono',Menlo,monospace" font-size="12" font-weight="500" fill="#7d8590" text-anchor="start">WakaTime · last week · 51 hrs coded</text>
<rect x="700.1" y="50.0" width="103.9" height="26.0" rx="13" fill="#11243b" stroke="#1f4a73" stroke-width="1"/>
<circle cx="713.1" cy="63" r="3.5" fill="#58A6FF"/>
<text x="724.1" y="67.0" font-family="'JetBrains Mono',ui-monospace,'SF Mono',Menlo,monospace" font-size="11" font-weight="600" fill="#c9d1d9" text-anchor="start">AI-Native</text>
<rect x="587.2" y="50.0" width="103.9" height="26.0" rx="13" fill="#10161e" stroke="#20262e" stroke-width="1"/>
<text x="598.2" y="67.0" font-family="'Space Grotesk','Segoe UI',system-ui,-apple-system,sans-serif" font-size="12" font-weight="400" fill="#f0f6fc" text-anchor="start">🦉</text>
<text x="616.2" y="67.0" font-family="'JetBrains Mono',ui-monospace,'SF Mono',Menlo,monospace" font-size="11" font-weight="600" fill="#c9d1d9" text-anchor="start">Night Owl</text>
<rect x="467.2" y="50.0" width="111.0" height="26.0" rx="13" fill="#2a1a10" stroke="#5a3a20" stroke-width="1"/>
<text x="478.2" y="67.0" font-family="'Space Grotesk','Segoe UI',system-ui,-apple-system,sans-serif" font-size="12" font-weight="400" fill="#f0f6fc" text-anchor="start">🔥</text>
<text x="496.2" y="67.0" font-family="'JetBrains Mono',ui-monospace,'SF Mono',Menlo,monospace" font-size="11" font-weight="600" fill="#c9d1d9" text-anchor="start">19d streak</text>
<text x="804.0" y="90.0" font-family="'JetBrains Mono',ui-monospace,'SF Mono',Menlo,monospace" font-size="11" font-weight="500" fill="#5b6470" text-anchor="end">avg 10 hrs 12 mins / day</text>
<rect x="36.0" y="114.0" width="768.0" height="150.0" rx="16" fill="#1a130f" stroke="#3a2a20" stroke-width="1"/>
<circle cx="111" cy="189" r="52" fill="none" stroke="#241a14" stroke-width="13"/>
<circle cx="111" cy="189" r="52" fill="none" stroke="url(#g_ring)" stroke-width="13" stroke-linecap="round" stroke-dasharray="326.7" stroke-dashoffset="0.2" transform="rotate(-90 111 189)"/>
<text x="111.0" y="187.0" font-family="'Space Grotesk','Segoe UI',system-ui,-apple-system,sans-serif" font-size="34" font-weight="700" fill="#f0f6fc" text-anchor="middle" letter-spacing="-1">100</text>
<text x="111.0" y="205.0" font-family="'JetBrains Mono',ui-monospace,'SF Mono',Menlo,monospace" font-size="9" font-weight="600" fill="#E8A06F" text-anchor="middle" letter-spacing="1">% AI-DRIVEN</text>
<text x="196.0" y="144.0" font-family="'Space Grotesk','Segoe UI',system-ui,-apple-system,sans-serif" font-size="16" font-weight="600" fill="#f0f6fc" text-anchor="start">거의 모든 코드를 Claude와 함께 작성했어요</text>
<circle cx="200" cy="162" r="4" fill="#D97757"/>
<text x="212.0" y="166.0" font-family="'JetBrains Mono',ui-monospace,'SF Mono',Menlo,monospace" font-size="13" font-weight="500" fill="#8b949e" text-anchor="start">AI</text>
<text x="238.0" y="166.0" font-family="'Space Grotesk','Segoe UI',system-ui,-apple-system,sans-serif" font-size="15" font-weight="700" fill="#f0f6fc" text-anchor="start">51.2K</text>
<text x="776.0" y="166.0" font-family="'JetBrains Mono',ui-monospace,'SF Mono',Menlo,monospace" font-size="13" font-weight="600" fill="#c9d1d9" text-anchor="end">100%</text>
<rect x="196.0" y="174.0" width="580.0" height="9.0" rx="5" fill="#161b22"/>
<rect x="196.0" y="174.0" width="580.0" height="9.0" rx="5" fill="url(#g_claude)"/>
<circle cx="200" cy="198" r="4" fill="#2EA043"/>
<text x="212.0" y="202.0" font-family="'JetBrains Mono',ui-monospace,'SF Mono',Menlo,monospace" font-size="13" font-weight="500" fill="#8b949e" text-anchor="start">Human</text>
<text x="260.0" y="202.0" font-family="'Space Grotesk','Segoe UI',system-ui,-apple-system,sans-serif" font-size="15" font-weight="700" fill="#f0f6fc" text-anchor="start">1</text>
<text x="776.0" y="202.0" font-family="'JetBrains Mono',ui-monospace,'SF Mono',Menlo,monospace" font-size="13" font-weight="600" fill="#7d8590" text-anchor="end">0%</text>
<rect x="196.0" y="210.0" width="580.0" height="9.0" rx="5" fill="#161b22"/>
<rect x="196.0" y="210.0" width="9.0" height="9.0" rx="5" fill="#2EA043"/>
<rect x="36.0" y="282.0" width="182.2" height="70.0" rx="13" fill="#10161e" stroke="#20262e" stroke-width="1"/>
<text x="52.0" y="312.0" font-family="'Space Grotesk','Segoe UI',system-ui,-apple-system,sans-serif" font-size="25" font-weight="700" fill="#f0f6fc" text-anchor="start" letter-spacing="-0.5">51.2K</text>
<text x="52.0" y="334.0" font-family="'JetBrains Mono',ui-monospace,'SF Mono',Menlo,monospace" font-size="11" font-weight="500" fill="#7d8590" text-anchor="start">AI line changes</text>
<rect x="231.2" y="282.0" width="182.2" height="70.0" rx="13" fill="#10161e" stroke="#20262e" stroke-width="1"/>
<text x="247.2" y="312.0" font-family="'Space Grotesk','Segoe UI',system-ui,-apple-system,sans-serif" font-size="25" font-weight="700" fill="#f0f6fc" text-anchor="start" letter-spacing="-0.5">3.66B</text>
<text x="324.8" y="312.0" font-family="'Space Grotesk','Segoe UI',system-ui,-apple-system,sans-serif" font-size="16" font-weight="700" fill="#58A6FF" text-anchor="start">B</text>
<text x="247.2" y="334.0" font-family="'JetBrains Mono',ui-monospace,'SF Mono',Menlo,monospace" font-size="11" font-weight="500" fill="#7d8590" text-anchor="start">tokens in · 5.8M out</text>
<rect x="426.5" y="282.0" width="182.2" height="70.0" rx="13" fill="#10161e" stroke="#20262e" stroke-width="1"/>
<text x="442.5" y="312.0" font-family="'Space Grotesk','Segoe UI',system-ui,-apple-system,sans-serif" font-size="25" font-weight="700" fill="#f0f6fc" text-anchor="start" letter-spacing="-0.5">$10,514</text>
<text x="442.5" y="334.0" font-family="'JetBrains Mono',ui-monospace,'SF Mono',Menlo,monospace" font-size="11" font-weight="500" fill="#7d8590" text-anchor="start">est. cost · 7 days</text>
<rect x="621.8" y="282.0" width="182.2" height="70.0" rx="13" fill="#10161e" stroke="#20262e" stroke-width="1"/>
<text x="637.8" y="312.0" font-family="'Space Grotesk','Segoe UI',system-ui,-apple-system,sans-serif" font-size="25" font-weight="700" fill="#f0f6fc" text-anchor="start" letter-spacing="-0.5">81</text>
<text x="637.8" y="334.0" font-family="'JetBrains Mono',ui-monospace,'SF Mono',Menlo,monospace" font-size="11" font-weight="500" fill="#7d8590" text-anchor="start">lines / prompt</text>
<rect x="36.0" y="378.0" width="768.0" height="132.0" rx="14" fill="#10161e" stroke="#20262e" stroke-width="1"/>
<text x="56.0" y="404.0" font-family="'JetBrains Mono',ui-monospace,'SF Mono',Menlo,monospace" font-size="11" font-weight="600" fill="#5b6470" text-anchor="start" letter-spacing="1.2" style="text-transform:uppercase">THIS WEEK vs LAST WEEK</text>
<text x="56.0" y="430.0" font-family="'Space Grotesk','Segoe UI',system-ui,-apple-system,sans-serif" font-size="22" font-weight="700" fill="#2EA043" text-anchor="start" letter-spacing="-0.5">▲ 80%</text>
<text x="138.0" y="430.0" font-family="'JetBrains Mono',ui-monospace,'SF Mono',Menlo,monospace" font-size="12" font-weight="500" fill="#8b949e" text-anchor="start">coding time</text>
<text x="784.0" y="404.0" font-family="'JetBrains Mono',ui-monospace,'SF Mono',Menlo,monospace" font-size="12" font-weight="500" fill="#7d8590" text-anchor="end">68h vs 38h</text>
<text x="56.0" y="450.0" font-family="'JetBrains Mono',ui-monospace,'SF Mono',Menlo,monospace" font-size="11" font-weight="500" fill="#c9d1d9" text-anchor="start">Coding time</text>
<text x="285.3" y="450.0" font-family="'JetBrains Mono',ui-monospace,'SF Mono',Menlo,monospace" font-size="11" font-weight="600" fill="#2EA043" text-anchor="end">▲ 80%</text>
<rect x="56.0" y="458.0" width="229.3" height="6.0" rx="3" fill="#161b22"/>
<rect x="56.0" y="458.0" width="229.3" height="6.0" rx="3" fill="#58A6FF"/>
<rect x="56.0" y="468.0" width="229.3" height="6.0" rx="3" fill="#161b22"/>
<rect x="56.0" y="468.0" width="127.2" height="6.0" rx="3" fill="#3d4757"/>
<text x="56.0" y="488.0" font-family="'JetBrains Mono',ui-monospace,'SF Mono',Menlo,monospace" font-size="10" font-weight="500" fill="#7d8590" text-anchor="start">now 68h</text>
<text x="285.3" y="488.0" font-family="'JetBrains Mono',ui-monospace,'SF Mono',Menlo,monospace" font-size="10" font-weight="500" fill="#5b6470" text-anchor="end">prev 38h</text>
<text x="305.3" y="450.0" font-family="'JetBrains Mono',ui-monospace,'SF Mono',Menlo,monospace" font-size="11" font-weight="500" fill="#c9d1d9" text-anchor="start">AI lines</text>
<text x="534.7" y="450.0" font-family="'JetBrains Mono',ui-monospace,'SF Mono',Menlo,monospace" font-size="11" font-weight="600" fill="#2EA043" text-anchor="end">▲ 165%</text>
<rect x="305.3" y="458.0" width="229.3" height="6.0" rx="3" fill="#161b22"/>
<rect x="305.3" y="458.0" width="229.3" height="6.0" rx="3" fill="#D97757"/>
<rect x="305.3" y="468.0" width="229.3" height="6.0" rx="3" fill="#161b22"/>
<rect x="305.3" y="468.0" width="86.5" height="6.0" rx="3" fill="#3d4757"/>
<text x="305.3" y="488.0" font-family="'JetBrains Mono',ui-monospace,'SF Mono',Menlo,monospace" font-size="10" font-weight="500" fill="#7d8590" text-anchor="start">now 60.2K</text>
<text x="534.7" y="488.0" font-family="'JetBrains Mono',ui-monospace,'SF Mono',Menlo,monospace" font-size="10" font-weight="500" fill="#5b6470" text-anchor="end">prev 22.7K</text>
<text x="554.7" y="450.0" font-family="'JetBrains Mono',ui-monospace,'SF Mono',Menlo,monospace" font-size="11" font-weight="500" fill="#c9d1d9" text-anchor="start">Tokens</text>
<text x="784.0" y="450.0" font-family="'JetBrains Mono',ui-monospace,'SF Mono',Menlo,monospace" font-size="11" font-weight="600" fill="#2EA043" text-anchor="end">▲ 142%</text>
<rect x="554.7" y="458.0" width="229.3" height="6.0" rx="3" fill="#161b22"/>
<rect x="554.7" y="458.0" width="229.3" height="6.0" rx="3" fill="#A371F7"/>
<rect x="554.7" y="468.0" width="229.3" height="6.0" rx="3" fill="#161b22"/>
<rect x="554.7" y="468.0" width="94.9" height="6.0" rx="3" fill="#3d4757"/>
<text x="554.7" y="488.0" font-family="'JetBrains Mono',ui-monospace,'SF Mono',Menlo,monospace" font-size="10" font-weight="500" fill="#7d8590" text-anchor="start">now 4.39B</text>
<text x="784.0" y="488.0" font-family="'JetBrains Mono',ui-monospace,'SF Mono',Menlo,monospace" font-size="10" font-weight="500" fill="#5b6470" text-anchor="end">prev 1.82B</text>
<text x="36.0" y="536.0" font-family="'JetBrains Mono',ui-monospace,'SF Mono',Menlo,monospace" font-size="12" font-weight="600" fill="#58A6FF" text-anchor="start" letter-spacing="1.4" style="text-transform:uppercase">AI Agents</text>
<line x1="119" y1="532" x2="714" y2="532" stroke="#1c222a"/>
<text x="804.0" y="536.0" font-family="'JetBrains Mono',ui-monospace,'SF Mono',Menlo,monospace" font-size="11" font-weight="500" fill="#7d8590" text-anchor="end">lines · est. cost</text>
<rect x="36.0" y="558.0" width="371.0" height="78.0" rx="13" fill="#10161e" stroke="#20262e" stroke-width="1"/>
<rect x="54.0" y="574.0" width="18.0" height="18.0" rx="6" fill="#D97757"/>
<text x="63.0" y="587.0" font-family="'Space Grotesk','Segoe UI',system-ui,-apple-system,sans-serif" font-size="11" font-weight="700" fill="#fff" text-anchor="middle">C</text>
<text x="80.0" y="588.0" font-family="'Space Grotesk','Segoe UI',system-ui,-apple-system,sans-serif" font-size="14" font-weight="600" fill="#f0f6fc" text-anchor="start">Claude</text>
<text x="389.0" y="588.0" font-family="'JetBrains Mono',ui-monospace,'SF Mono',Menlo,monospace" font-size="13" font-weight="600" fill="#c9d1d9" text-anchor="end">$10,514</text>
<text x="54.0" y="614.0" font-family="'JetBrains Mono',ui-monospace,'SF Mono',Menlo,monospace" font-size="10" font-weight="500" fill="#5b6470" text-anchor="start">lines</text>
<rect x="92.0" y="607.0" width="235.0" height="7.0" rx="4" fill="#161b22"/>
<rect x="92.0" y="607.0" width="235.0" height="7.0" rx="4" fill="url(#g_claude)"/>
<text x="389.0" y="613.0" font-family="'JetBrains Mono',ui-monospace,'SF Mono',Menlo,monospace" font-size="11" font-weight="600" fill="#c9d1d9" text-anchor="end">51,247</text>
<rect x="433.0" y="558.0" width="371.0" height="78.0" rx="13" fill="#10161e" stroke="#20262e" stroke-width="1"/>
<text x="451.0" y="584.0" font-family="'JetBrains Mono',ui-monospace,'SF Mono',Menlo,monospace" font-size="10" font-weight="600" fill="#5b6470" text-anchor="start" letter-spacing="1" style="text-transform:uppercase">MACHINES</text>
<text x="451.0" y="604.0" font-family="'JetBrains Mono',ui-monospace,'SF Mono',Menlo,monospace" font-size="11" font-weight="500" fill="#c9d1d9" text-anchor="start">20****7</text>
<rect x="451.0" y="610.0" width="285.0" height="6.0" rx="3" fill="#161b22"/>
<rect x="451.0" y="610.0" width="196.7" height="6.0" rx="3" fill="url(#g_blue)"/>
<text x="786.0" y="604.0" font-family="'JetBrains Mono',ui-monospace,'SF Mono',Menlo,monospace" font-size="11" font-weight="600" fill="#7d8590" text-anchor="end">69%</text>
<text x="451.0" y="626.0" font-family="'JetBrains Mono',ui-monospace,'SF Mono',Menlo,monospace" font-size="11" font-weight="500" fill="#c9d1d9" text-anchor="start">RAViT</text>
<rect x="451.0" y="632.0" width="285.0" height="6.0" rx="3" fill="#161b22"/>
<rect x="451.0" y="632.0" width="88.3" height="6.0" rx="3" fill="#3d4757"/>
<text x="786.0" y="626.0" font-family="'JetBrains Mono',ui-monospace,'SF Mono',Menlo,monospace" font-size="11" font-weight="600" fill="#7d8590" text-anchor="end">31%</text>
<text x="36.0" y="662.0" font-family="'JetBrains Mono',ui-monospace,'SF Mono',Menlo,monospace" font-size="12" font-weight="600" fill="#58A6FF" text-anchor="start" letter-spacing="1.4" style="text-transform:uppercase">When I code</text>
<line x1="135" y1="658" x2="714" y2="658" stroke="#1c222a"/>
<text x="804.0" y="662.0" font-family="'JetBrains Mono',ui-monospace,'SF Mono',Menlo,monospace" font-size="11" font-weight="500" fill="#7d8590" text-anchor="end">00:00–01:00</text>
<clipPath id="todclip"><rect x="36" y="684" width="371.0" height="13" rx="6"/></clipPath>
<g clip-path="url(#todclip)">
<rect x="36.0" y="684.0" width="80.4" height="13.0" rx="0" fill="#4C5FD5"/>
<rect x="115.9" y="684.0" width="75.8" height="13.0" rx="0" fill="#E0A14B"/>
<rect x="191.2" y="684.0" width="154.3" height="13.0" rx="0" fill="#58A6FF"/>
<rect x="345.0" y="684.0" width="29.3" height="13.0" rx="0" fill="#A371F7"/>
<rect x="373.8" y="684.0" width="33.7" height="13.0" rx="0" fill="#7C4DD0"/>
</g>
<rect x="36.0" y="705.0" width="9.0" height="9.0" rx="3" fill="#4C5FD5"/>
<text x="52.0" y="714.0" font-family="'JetBrains Mono',ui-monospace,'SF Mono',Menlo,monospace" font-size="12" font-weight="500" fill="#c9d1d9" text-anchor="start">🌙 새벽</text>
<text x="407.0" y="714.0" font-family="'JetBrains Mono',ui-monospace,'SF Mono',Menlo,monospace" font-size="12" font-weight="600" fill="#c9d1d9" text-anchor="end">21.5%</text>
<rect x="36.0" y="725.0" width="9.0" height="9.0" rx="3" fill="#E0A14B"/>
<text x="52.0" y="734.0" font-family="'JetBrains Mono',ui-monospace,'SF Mono',Menlo,monospace" font-size="12" font-weight="500" fill="#c9d1d9" text-anchor="start">🌅 아침</text>
<text x="407.0" y="734.0" font-family="'JetBrains Mono',ui-monospace,'SF Mono',Menlo,monospace" font-size="12" font-weight="600" fill="#c9d1d9" text-anchor="end">20.3%</text>
<rect x="36.0" y="745.0" width="9.0" height="9.0" rx="3" fill="#58A6FF"/>
<text x="52.0" y="754.0" font-family="'JetBrains Mono',ui-monospace,'SF Mono',Menlo,monospace" font-size="12" font-weight="500" fill="#c9d1d9" text-anchor="start">☀️ 낮</text>
<text x="407.0" y="754.0" font-family="'JetBrains Mono',ui-monospace,'SF Mono',Menlo,monospace" font-size="12" font-weight="600" fill="#c9d1d9" text-anchor="end">41.5%</text>
<rect x="36.0" y="765.0" width="9.0" height="9.0" rx="3" fill="#A371F7"/>
<text x="52.0" y="774.0" font-family="'JetBrains Mono',ui-monospace,'SF Mono',Menlo,monospace" font-size="12" font-weight="500" fill="#c9d1d9" text-anchor="start">🌆 저녁</text>
<text x="407.0" y="774.0" font-family="'JetBrains Mono',ui-monospace,'SF Mono',Menlo,monospace" font-size="12" font-weight="600" fill="#c9d1d9" text-anchor="end">7.8%</text>
<rect x="36.0" y="785.0" width="9.0" height="9.0" rx="3" fill="#7C4DD0"/>
<text x="52.0" y="794.0" font-family="'JetBrains Mono',ui-monospace,'SF Mono',Menlo,monospace" font-size="12" font-weight="500" fill="#c9d1d9" text-anchor="start">🌃 밤</text>
<text x="407.0" y="794.0" font-family="'JetBrains Mono',ui-monospace,'SF Mono',Menlo,monospace" font-size="12" font-weight="600" fill="#c9d1d9" text-anchor="end">9.0%</text>
<text x="36.0" y="662.0" font-family="'JetBrains Mono',ui-monospace,'SF Mono',Menlo,monospace" font-size="12" font-weight="600" fill="#58A6FF" text-anchor="start" letter-spacing="1.4" style="text-transform:uppercase">Weekday</text>
<line x1="102" y1="658" x2="714" y2="658" stroke="#1c222a"/>
<text x="804.0" y="662.0" font-family="'JetBrains Mono',ui-monospace,'SF Mono',Menlo,monospace" font-size="11" font-weight="500" fill="#7d8590" text-anchor="end">peak 월요일</text>
<rect x="433.0" y="684.0" width="46.1" height="110.0" rx="4" fill="url(#g_peak)"/>
<text x="456.1" y="810.0" font-family="'JetBrains Mono',ui-monospace,'SF Mono',Menlo,monospace" font-size="11" font-weight="600" fill="#58A6FF" text-anchor="middle">월</text>
<rect x="487.1" y="711.0" width="46.1" height="83.0" rx="4" fill="#2f3a4a"/>
<text x="510.2" y="810.0" font-family="'JetBrains Mono',ui-monospace,'SF Mono',Menlo,monospace" font-size="11" font-weight="500" fill="#7d8590" text-anchor="middle">화</text>
<rect x="541.3" y="712.5" width="46.1" height="81.5" rx="4" fill="#2f3a4a"/>
<text x="564.4" y="810.0" font-family="'JetBrains Mono',ui-monospace,'SF Mono',Menlo,monospace" font-size="11" font-weight="500" fill="#7d8590" text-anchor="middle">수</text>
<rect x="595.4" y="694.7" width="46.1" height="99.3" rx="4" fill="#2f3a4a"/>
<text x="618.5" y="810.0" font-family="'JetBrains Mono',ui-monospace,'SF Mono',Menlo,monospace" font-size="11" font-weight="500" fill="#7d8590" text-anchor="middle">목</text>
<rect x="649.6" y="726.6" width="46.1" height="67.4" rx="4" fill="#2f3a4a"/>
<text x="672.6" y="810.0" font-family="'JetBrains Mono',ui-monospace,'SF Mono',Menlo,monospace" font-size="11" font-weight="500" fill="#7d8590" text-anchor="middle">금</text>
<rect x="703.7" y="771.1" width="46.1" height="22.9" rx="4" fill="#2f3a4a"/>
<text x="726.8" y="810.0" font-family="'JetBrains Mono',ui-monospace,'SF Mono',Menlo,monospace" font-size="11" font-weight="500" fill="#7d8590" text-anchor="middle">토</text>
<rect x="757.9" y="716.8" width="46.1" height="77.2" rx="4" fill="#2f3a4a"/>
<text x="780.9" y="810.0" font-family="'JetBrains Mono',ui-monospace,'SF Mono',Menlo,monospace" font-size="11" font-weight="500" fill="#7d8590" text-anchor="middle">일</text>
<rect x="36.0" y="832.0" width="768.0" height="34.0" rx="10" fill="#0e1722" stroke="#20262e" stroke-width="1"/>
<text x="52.0" y="854.0" font-family="'JetBrains Mono',ui-monospace,'SF Mono',Menlo,monospace" font-size="12" font-weight="500" fill="#c9d1d9" text-anchor="start">🏆 가장 생산적인 날</text>
<text x="788.0" y="854.0" font-family="'JetBrains Mono',ui-monospace,'SF Mono',Menlo,monospace" font-size="12" font-weight="600" fill="#79b8ff" text-anchor="end">수요일 · 13 hrs 8 mins</text>
<text x="420.0" y="854.0" font-family="'JetBrains Mono',ui-monospace,'SF Mono',Menlo,monospace" font-size="12" font-weight="500" fill="#7d8590" text-anchor="middle">🔥 19일 연속 · 최장 몰입 3h 9m</text>
<text x="36.0" y="894.0" font-family="'JetBrains Mono',ui-monospace,'SF Mono',Menlo,monospace" font-size="12" font-weight="600" fill="#58A6FF" text-anchor="start" letter-spacing="1.4" style="text-transform:uppercase">Languages</text>
<line x1="119" y1="890" x2="804" y2="890" stroke="#1c222a"/>
<text x="36.0" y="925.0" font-family="'JetBrains Mono',ui-monospace,'SF Mono',Menlo,monospace" font-size="13" font-weight="500" fill="#c9d1d9" text-anchor="start">Kotlin</text>
<rect x="136.0" y="917.0" width="518.0" height="9.0" rx="5" fill="#161b22"/>
<rect x="136.0" y="917.0" width="320.4" height="9.0" rx="5" fill="url(#g_purple)"/>
<text x="804.0" y="925.0" font-family="'JetBrains Mono',ui-monospace,'SF Mono',Menlo,monospace" font-size="12" font-weight="500" fill="#7d8590" text-anchor="end">31 hrs 33 mins · 61.9%</text>
<text x="36.0" y="947.0" font-family="'JetBrains Mono',ui-monospace,'SF Mono',Menlo,monospace" font-size="13" font-weight="500" fill="#c9d1d9" text-anchor="start">Markdown</text>
<rect x="136.0" y="939.0" width="518.0" height="9.0" rx="5" fill="#161b22"/>
<rect x="136.0" y="939.0" width="159.3" height="9.0" rx="5" fill="#3A82A8"/>
<text x="804.0" y="947.0" font-family="'JetBrains Mono',ui-monospace,'SF Mono',Menlo,monospace" font-size="12" font-weight="500" fill="#7d8590" text-anchor="end">15 hrs 41 mins · 30.8%</text>
<text x="36.0" y="969.0" font-family="'JetBrains Mono',ui-monospace,'SF Mono',Menlo,monospace" font-size="13" font-weight="500" fill="#c9d1d9" text-anchor="start">HTML</text>
<rect x="136.0" y="961.0" width="518.0" height="9.0" rx="5" fill="#161b22"/>
<rect x="136.0" y="961.0" width="26.0" height="9.0" rx="5" fill="#D9663B"/>
<text x="804.0" y="969.0" font-family="'JetBrains Mono',ui-monospace,'SF Mono',Menlo,monospace" font-size="12" font-weight="500" fill="#7d8590" text-anchor="end">2 hrs 33 mins · 5.0%</text>
<text x="36.0" y="991.0" font-family="'JetBrains Mono',ui-monospace,'SF Mono',Menlo,monospace" font-size="13" font-weight="500" fill="#c9d1d9" text-anchor="start">YAML</text>
<rect x="136.0" y="983.0" width="518.0" height="9.0" rx="5" fill="#161b22"/>
<rect x="136.0" y="983.0" width="10.9" height="9.0" rx="5" fill="#6E7681"/>
<text x="804.0" y="991.0" font-family="'JetBrains Mono',ui-monospace,'SF Mono',Menlo,monospace" font-size="12" font-weight="500" fill="#7d8590" text-anchor="end">1 hr 4 mins · 2.1%</text>
<text x="36.0" y="1013.0" font-family="'JetBrains Mono',ui-monospace,'SF Mono',Menlo,monospace" font-size="13" font-weight="500" fill="#c9d1d9" text-anchor="start">TypeScript</text>
<rect x="136.0" y="1005.0" width="518.0" height="9.0" rx="5" fill="#161b22"/>
<rect x="136.0" y="1005.0" width="9.0" height="9.0" rx="5" fill="#58A6FF"/>
<text x="804.0" y="1013.0" font-family="'JetBrains Mono',ui-monospace,'SF Mono',Menlo,monospace" font-size="12" font-weight="500" fill="#7d8590" text-anchor="end">5 mins · 0.2%</text>
<text x="36.0" y="1032.0" font-family="'JetBrains Mono',ui-monospace,'SF Mono',Menlo,monospace" font-size="12" font-weight="600" fill="#58A6FF" text-anchor="start" letter-spacing="1.4" style="text-transform:uppercase">Editors</text>
<line x1="102" y1="1028" x2="804" y2="1028" stroke="#1c222a"/>
<text x="36.0" y="1062.0" font-family="'JetBrains Mono',ui-monospace,'SF Mono',Menlo,monospace" font-size="12" font-weight="500" fill="#c9d1d9" text-anchor="start">Claude Code</text>
<rect x="126.0" y="1055.0" width="233.0" height="8.0" rx="4" fill="#161b22"/>
<rect x="126.0" y="1055.0" width="231.0" height="8.0" rx="4" fill="url(#g_claude)"/>
<text x="407.0" y="1062.0" font-family="'JetBrains Mono',ui-monospace,'SF Mono',Menlo,monospace" font-size="11" font-weight="600" fill="#7d8590" text-anchor="end">99.1%</text>
<text x="36.0" y="1086.0" font-family="'JetBrains Mono',ui-monospace,'SF Mono',Menlo,monospace" font-size="12" font-weight="500" fill="#c9d1d9" text-anchor="start">IntelliJ IDEA</text>
<rect x="126.0" y="1079.0" width="233.0" height="8.0" rx="4" fill="#161b22"/>
<rect x="126.0" y="1079.0" width="8.0" height="8.0" rx="4" fill="#3d4757"/>
<text x="407.0" y="1086.0" font-family="'JetBrains Mono',ui-monospace,'SF Mono',Menlo,monospace" font-size="11" font-weight="500" fill="#7d8590" text-anchor="end">0.5%</text>
<text x="36.0" y="1110.0" font-family="'JetBrains Mono',ui-monospace,'SF Mono',Menlo,monospace" font-size="12" font-weight="500" fill="#c9d1d9" text-anchor="start">Obsidian</text>
<rect x="126.0" y="1103.0" width="233.0" height="8.0" rx="4" fill="#161b22"/>
<rect x="126.0" y="1103.0" width="8.0" height="8.0" rx="4" fill="#3d4757"/>
<text x="407.0" y="1110.0" font-family="'JetBrains Mono',ui-monospace,'SF Mono',Menlo,monospace" font-size="11" font-weight="500" fill="#7d8590" text-anchor="end">0.4%</text>
<text x="36.0" y="1032.0" font-family="'JetBrains Mono',ui-monospace,'SF Mono',Menlo,monospace" font-size="12" font-weight="600" fill="#58A6FF" text-anchor="start" letter-spacing="1.4" style="text-transform:uppercase">Projects</text>
<line x1="111" y1="1028" x2="804" y2="1028" stroke="#1c222a"/>
<text x="433.0" y="1062.0" font-family="'JetBrains Mono',ui-monospace,'SF Mono',Menlo,monospace" font-size="12" font-weight="500" fill="#c9d1d9" text-anchor="start">bare</text>
<rect x="519.0" y="1055.0" width="237.0" height="8.0" rx="4" fill="#161b22"/>
<rect x="519.0" y="1055.0" width="148.7" height="8.0" rx="4" fill="url(#g_blue)"/>
<text x="804.0" y="1062.0" font-family="'JetBrains Mono',ui-monospace,'SF Mono',Menlo,monospace" font-size="11" font-weight="600" fill="#7d8590" text-anchor="end">62.7%</text>
<text x="433.0" y="1086.0" font-family="'JetBrains Mono',ui-monospace,'SF Mono',Menlo,monospace" font-size="12" font-weight="500" fill="#c9d1d9" text-anchor="start">miner</text>
<rect x="519.0" y="1079.0" width="237.0" height="8.0" rx="4" fill="#161b22"/>
<rect x="519.0" y="1079.0" width="73.3" height="8.0" rx="4" fill="url(#g_purple)"/>
<text x="804.0" y="1086.0" font-family="'JetBrains Mono',ui-monospace,'SF Mono',Menlo,monospace" font-size="11" font-weight="600" fill="#7d8590" text-anchor="end">30.9%</text>
<text x="433.0" y="1110.0" font-family="'JetBrains Mono',ui-monospace,'SF Mono',Menlo,monospace" font-size="12" font-weight="500" fill="#c9d1d9" text-anchor="start">a20****7</text>
<rect x="519.0" y="1103.0" width="237.0" height="8.0" rx="4" fill="#161b22"/>
<rect x="519.0" y="1103.0" width="8.0" height="8.0" rx="4" fill="#3d4757"/>
<text x="804.0" y="1110.0" font-family="'JetBrains Mono',ui-monospace,'SF Mono',Menlo,monospace" font-size="11" font-weight="500" fill="#7d8590" text-anchor="end">2.2%</text>
<text x="433.0" y="1134.0" font-family="'JetBrains Mono',ui-monospace,'SF Mono',Menlo,monospace" font-size="12" font-weight="500" fill="#c9d1d9" text-anchor="start">Desktop</text>
<rect x="519.0" y="1127.0" width="237.0" height="8.0" rx="4" fill="#161b22"/>
<rect x="519.0" y="1127.0" width="8.0" height="8.0" rx="4" fill="#3d4757"/>
<text x="804.0" y="1134.0" font-family="'JetBrains Mono',ui-monospace,'SF Mono',Menlo,monospace" font-size="11" font-weight="500" fill="#7d8590" text-anchor="end">1.9%</text>
<text x="36.0" y="1164.0" font-family="'JetBrains Mono',ui-monospace,'SF Mono',Menlo,monospace" font-size="12" font-weight="600" fill="#58A6FF" text-anchor="start" letter-spacing="1.4" style="text-transform:uppercase">Dependencies</text>
<line x1="143" y1="1160" x2="714" y2="1160" stroke="#1c222a"/>
<text x="804.0" y="1164.0" font-family="'JetBrains Mono',ui-monospace,'SF Mono',Menlo,monospace" font-size="11" font-weight="500" fill="#7d8590" text-anchor="end">detected libraries</text>
<text x="36.0" y="1194.0" font-family="'JetBrains Mono',ui-monospace,'SF Mono',Menlo,monospace" font-size="12" font-weight="500" fill="#c9d1d9" text-anchor="start">co****l</text>
<rect x="186.0" y="1187.0" width="177.0" height="8.0" rx="4" fill="#161b22"/>
<rect x="186.0" y="1187.0" width="43.9" height="8.0" rx="4" fill="url(#g_blue)"/>
<text x="407.0" y="1194.0" font-family="'JetBrains Mono',ui-monospace,'SF Mono',Menlo,monospace" font-size="11" font-weight="500" fill="#7d8590" text-anchor="end">25%</text>
<text x="433.0" y="1194.0" font-family="'JetBrains Mono',ui-monospace,'SF Mono',Menlo,monospace" font-size="12" font-weight="500" fill="#c9d1d9" text-anchor="start">io.kotest</text>
<rect x="583.0" y="1187.0" width="177.0" height="8.0" rx="4" fill="#161b22"/>
<rect x="583.0" y="1187.0" width="30.6" height="8.0" rx="4" fill="url(#g_blue)"/>
<text x="804.0" y="1194.0" font-family="'JetBrains Mono',ui-monospace,'SF Mono',Menlo,monospace" font-size="11" font-weight="500" fill="#7d8590" text-anchor="end">17%</text>
<text x="36.0" y="1218.0" font-family="'JetBrains Mono',ui-monospace,'SF Mono',Menlo,monospace" font-size="12" font-weight="500" fill="#c9d1d9" text-anchor="start">org.springframework</text>
<rect x="186.0" y="1211.0" width="177.0" height="8.0" rx="4" fill="#161b22"/>
<rect x="186.0" y="1211.0" width="20.8" height="8.0" rx="4" fill="url(#g_blue)"/>
<text x="407.0" y="1218.0" font-family="'JetBrains Mono',ui-monospace,'SF Mono',Menlo,monospace" font-size="11" font-weight="500" fill="#7d8590" text-anchor="end">12%</text>
<text x="433.0" y="1218.0" font-family="'JetBrains Mono',ui-monospace,'SF Mono',Menlo,monospace" font-size="12" font-weight="500" fill="#c9d1d9" text-anchor="start">kotlinx.coroutines</text>
<rect x="583.0" y="1211.0" width="177.0" height="8.0" rx="4" fill="#161b22"/>
<rect x="583.0" y="1211.0" width="13.2" height="8.0" rx="4" fill="url(#g_blue)"/>
<text x="804.0" y="1218.0" font-family="'JetBrains Mono',ui-monospace,'SF Mono',Menlo,monospace" font-size="11" font-weight="500" fill="#7d8590" text-anchor="end">7%</text>
<text x="36.0" y="1242.0" font-family="'JetBrains Mono',ui-monospace,'SF Mono',Menlo,monospace" font-size="12" font-weight="500" fill="#c9d1d9" text-anchor="start">run.ravit</text>
<rect x="186.0" y="1235.0" width="177.0" height="8.0" rx="4" fill="#161b22"/>
<rect x="186.0" y="1235.0" width="10.3" height="8.0" rx="4" fill="url(#g_blue)"/>
<text x="407.0" y="1242.0" font-family="'JetBrains Mono',ui-monospace,'SF Mono',Menlo,monospace" font-size="11" font-weight="500" fill="#7d8590" text-anchor="end">6%</text>
<text x="433.0" y="1242.0" font-family="'JetBrains Mono',ui-monospace,'SF Mono',Menlo,monospace" font-size="12" font-weight="500" fill="#c9d1d9" text-anchor="start">com.fasterxml</text>
<rect x="583.0" y="1235.0" width="177.0" height="8.0" rx="4" fill="#161b22"/>
<rect x="583.0" y="1235.0" width="10.0" height="8.0" rx="4" fill="url(#g_blue)"/>
<text x="804.0" y="1242.0" font-family="'JetBrains Mono',ui-monospace,'SF Mono',Menlo,monospace" font-size="11" font-weight="500" fill="#7d8590" text-anchor="end">6%</text>
<text x="36.0" y="1274.0" font-family="'JetBrains Mono',ui-monospace,'SF Mono',Menlo,monospace" font-size="12" font-weight="600" fill="#58A6FF" text-anchor="start" letter-spacing="1.4" style="text-transform:uppercase">Last 30 days</text>
<line x1="143" y1="1270" x2="714" y2="1270" stroke="#1c222a"/>
<text x="804.0" y="1274.0" font-family="'JetBrains Mono',ui-monospace,'SF Mono',Menlo,monospace" font-size="11" font-weight="500" fill="#7d8590" text-anchor="end">19일 연속 활동 🔥</text>
<rect x="36.0" y="1296.0" width="20.8" height="20.8" rx="3" fill="#0d2d4a"/>
<rect x="61.8" y="1296.0" width="20.8" height="20.8" rx="3" fill="#161b22"/>
<rect x="87.5" y="1296.0" width="20.8" height="20.8" rx="3" fill="#2f6fc0"/>
<rect x="113.3" y="1296.0" width="20.8" height="20.8" rx="3" fill="#15487f"/>
<rect x="139.1" y="1296.0" width="20.8" height="20.8" rx="3" fill="#15487f"/>
<rect x="164.8" y="1296.0" width="20.8" height="20.8" rx="3" fill="#15487f"/>
<rect x="190.6" y="1296.0" width="20.8" height="20.8" rx="3" fill="#161b22"/>
<rect x="216.4" y="1296.0" width="20.8" height="20.8" rx="3" fill="#161b22"/>
<rect x="242.1" y="1296.0" width="20.8" height="20.8" rx="3" fill="#0d2d4a"/>
<rect x="267.9" y="1296.0" width="20.8" height="20.8" rx="3" fill="#0d2d4a"/>
<rect x="293.7" y="1296.0" width="20.8" height="20.8" rx="3" fill="#161b22"/>
<rect x="319.4" y="1296.0" width="20.8" height="20.8" rx="3" fill="#15487f"/>
<rect x="345.2" y="1296.0" width="20.8" height="20.8" rx="3" fill="#15487f"/>
<rect x="371.0" y="1296.0" width="20.8" height="20.8" rx="3" fill="#15487f"/>
<rect x="396.7" y="1296.0" width="20.8" height="20.8" rx="3" fill="#2f6fc0"/>
<rect x="422.5" y="1296.0" width="20.8" height="20.8" rx="3" fill="#15487f"/>
<rect x="448.3" y="1296.0" width="20.8" height="20.8" rx="3" fill="#15487f"/>
<rect x="474.0" y="1296.0" width="20.8" height="20.8" rx="3" fill="#15487f"/>
<rect x="499.8" y="1296.0" width="20.8" height="20.8" rx="3" fill="#15487f"/>
<rect x="525.6" y="1296.0" width="20.8" height="20.8" rx="3" fill="#0d2d4a"/>
<rect x="551.3" y="1296.0" width="20.8" height="20.8" rx="3" fill="#0d2d4a"/>
<rect x="577.1" y="1296.0" width="20.8" height="20.8" rx="3" fill="#15487f"/>
<rect x="602.9" y="1296.0" width="20.8" height="20.8" rx="3" fill="#58A6FF"/>
<rect x="628.6" y="1296.0" width="20.8" height="20.8" rx="3" fill="#58A6FF"/>
<rect x="654.4" y="1296.0" width="20.8" height="20.8" rx="3" fill="#58A6FF"/>
<rect x="680.2" y="1296.0" width="20.8" height="20.8" rx="3" fill="#58A6FF"/>
<rect x="705.9" y="1296.0" width="20.8" height="20.8" rx="3" fill="#2f6fc0"/>
<rect x="731.7" y="1296.0" width="20.8" height="20.8" rx="3" fill="#0d2d4a"/>
<rect x="757.5" y="1296.0" width="20.8" height="20.8" rx="3" fill="#2f6fc0"/>
<rect x="783.2" y="1296.0" width="20.8" height="20.8" rx="3" fill="#58A6FF"/>
<text x="36.0" y="1336.8" font-family="'JetBrains Mono',ui-monospace,'SF Mono',Menlo,monospace" font-size="10" font-weight="500" fill="#5b6470" text-anchor="start">Less</text>
<rect x="70.0" y="1328.8" width="11.0" height="11.0" rx="3" fill="#161b22"/>
<rect x="85.0" y="1328.8" width="11.0" height="11.0" rx="3" fill="#0d2d4a"/>
<rect x="100.0" y="1328.8" width="11.0" height="11.0" rx="3" fill="#15487f"/>
<rect x="115.0" y="1328.8" width="11.0" height="11.0" rx="3" fill="#2f6fc0"/>
<rect x="130.0" y="1328.8" width="11.0" height="11.0" rx="3" fill="#58A6FF"/>
<text x="149.0" y="1336.8" font-family="'JetBrains Mono',ui-monospace,'SF Mono',Menlo,monospace" font-size="10" font-weight="500" fill="#5b6470" text-anchor="start">More</text>
<line x1="36" y1="1361.7666666666667" x2="804" y2="1361.7666666666667" stroke="#1c222a"/>
<text x="36.0" y="1379.8" font-family="'JetBrains Mono',ui-monospace,'SF Mono',Menlo,monospace" font-size="11" font-weight="500" fill="#7d8590" text-anchor="start">저는 저녁형 인간이에요 🦉 · 피크 00:00–01:00 · 평균 10 hrs 12 mins/day</text>
<text x="804.0" y="1379.8" font-family="'JetBrains Mono',ui-monospace,'SF Mono',Menlo,monospace" font-size="10" font-weight="500" fill="#5b6470" text-anchor="end">powered by WakaTime</text>
<path d="M686 1370.7666666666667 l-2.2 8.6 -5.4 -4.2 4.2 5.4 -8.6 2.2 8.6 2.2 -4.2 5.4 5.4 -4.2 2.2 8.6 2.2 -8.6 5.4 4.2 -4.2 -5.4 8.6 -2.2 -8.6 -2.2 4.2 -5.4 -5.4 4.2z" fill="#5b6470" transform="translate(0,0)"/>
</svg>
