<svg width="840" height="139" viewBox="0 0 840 139" xmlns="http://www.w3.org/2000/svg" font-family="'Space Grotesk','Segoe UI',system-ui,-apple-system,sans-serif">
<defs>
<linearGradient id="g_claude" x1="0" y1="0" x2="1" y2="0"><stop offset="0" stop-color="#D97757"/><stop offset="1" stop-color="#E8A06F"/></linearGradient>
<linearGradient id="g_blue" x1="0" y1="0" x2="1" y2="0"><stop offset="0" stop-color="#3b82f6"/><stop offset="1" stop-color="#79b8ff"/></linearGradient>
<linearGradient id="g_purple" x1="0" y1="0" x2="1" y2="0"><stop offset="0" stop-color="#8B6FC9"/><stop offset="1" stop-color="#A371F7"/></linearGradient>
<linearGradient id="g_ring" x1="0" y1="0" x2="0" y2="1"><stop offset="0" stop-color="#D97757"/><stop offset="1" stop-color="#E8A06F"/></linearGradient>
<linearGradient id="g_peak" x1="0" y1="0" x2="0" y2="1"><stop offset="0" stop-color="#3b82f6"/><stop offset="1" stop-color="#A371F7"/></linearGradient>
</defs>
<rect x="18.0" y="7.0" width="804.0" height="124.8" rx="14" fill="#ffffff" stroke="#d0d7de" stroke-width="1"/>
<text x="36.0" y="31.0" font-family="'JetBrains Mono',ui-monospace,'SF Mono',Menlo,monospace" font-size="11" font-weight="600" fill="#3b82f6" text-anchor="start" letter-spacing="1.3" style="text-transform:uppercase">LAST 30 DAYS</text>
<text x="804.0" y="31.0" font-family="'JetBrains Mono',ui-monospace,'SF Mono',Menlo,monospace" font-size="10" font-weight="500" fill="#6e7781" text-anchor="end">19일 연속 활동 🔥</text>
<rect x="36.0" y="45.0" width="20.8" height="20.8" rx="3" fill="#ebedf0"/>
<rect x="61.8" y="45.0" width="20.8" height="20.8" rx="3" fill="#4a8de0"/>
<rect x="87.5" y="45.0" width="20.8" height="20.8" rx="3" fill="#7fb1ec"/>
<rect x="113.3" y="45.0" width="20.8" height="20.8" rx="3" fill="#7fb1ec"/>
<rect x="139.1" y="45.0" width="20.8" height="20.8" rx="3" fill="#7fb1ec"/>
<rect x="164.8" y="45.0" width="20.8" height="20.8" rx="3" fill="#ebedf0"/>
<rect x="190.6" y="45.0" width="20.8" height="20.8" rx="3" fill="#ebedf0"/>
<rect x="216.4" y="45.0" width="20.8" height="20.8" rx="3" fill="#bcd7f5"/>
<rect x="242.1" y="45.0" width="20.8" height="20.8" rx="3" fill="#bcd7f5"/>
<rect x="267.9" y="45.0" width="20.8" height="20.8" rx="3" fill="#ebedf0"/>
<rect x="293.7" y="45.0" width="20.8" height="20.8" rx="3" fill="#7fb1ec"/>
<rect x="319.4" y="45.0" width="20.8" height="20.8" rx="3" fill="#7fb1ec"/>
<rect x="345.2" y="45.0" width="20.8" height="20.8" rx="3" fill="#7fb1ec"/>
<rect x="371.0" y="45.0" width="20.8" height="20.8" rx="3" fill="#4a8de0"/>
<rect x="396.7" y="45.0" width="20.8" height="20.8" rx="3" fill="#7fb1ec"/>
<rect x="422.5" y="45.0" width="20.8" height="20.8" rx="3" fill="#7fb1ec"/>
<rect x="448.3" y="45.0" width="20.8" height="20.8" rx="3" fill="#7fb1ec"/>
<rect x="474.0" y="45.0" width="20.8" height="20.8" rx="3" fill="#7fb1ec"/>
<rect x="499.8" y="45.0" width="20.8" height="20.8" rx="3" fill="#bcd7f5"/>
<rect x="525.6" y="45.0" width="20.8" height="20.8" rx="3" fill="#bcd7f5"/>
<rect x="551.3" y="45.0" width="20.8" height="20.8" rx="3" fill="#7fb1ec"/>
<rect x="577.1" y="45.0" width="20.8" height="20.8" rx="3" fill="#1f6fdb"/>
<rect x="602.9" y="45.0" width="20.8" height="20.8" rx="3" fill="#1f6fdb"/>
<rect x="628.6" y="45.0" width="20.8" height="20.8" rx="3" fill="#1f6fdb"/>
<rect x="654.4" y="45.0" width="20.8" height="20.8" rx="3" fill="#1f6fdb"/>
<rect x="680.2" y="45.0" width="20.8" height="20.8" rx="3" fill="#4a8de0"/>
<rect x="705.9" y="45.0" width="20.8" height="20.8" rx="3" fill="#bcd7f5"/>
<rect x="731.7" y="45.0" width="20.8" height="20.8" rx="3" fill="#4a8de0"/>
<rect x="757.5" y="45.0" width="20.8" height="20.8" rx="3" fill="#1f6fdb"/>
<rect x="783.2" y="45.0" width="20.8" height="20.8" rx="3" fill="#ebedf0"/>
<text x="36.0" y="88.8" font-family="'JetBrains Mono',ui-monospace,'SF Mono',Menlo,monospace" font-size="10" font-weight="500" fill="#9aa3ad" text-anchor="start">Less</text>
<rect x="72.0" y="80.8" width="11.0" height="11.0" rx="3" fill="#ebedf0"/>
<rect x="87.0" y="80.8" width="11.0" height="11.0" rx="3" fill="#bcd7f5"/>
<rect x="102.0" y="80.8" width="11.0" height="11.0" rx="3" fill="#7fb1ec"/>
<rect x="117.0" y="80.8" width="11.0" height="11.0" rx="3" fill="#4a8de0"/>
<rect x="132.0" y="80.8" width="11.0" height="11.0" rx="3" fill="#1f6fdb"/>
<text x="151.0" y="88.8" font-family="'JetBrains Mono',ui-monospace,'SF Mono',Menlo,monospace" font-size="10" font-weight="500" fill="#9aa3ad" text-anchor="start">More</text>
<text x="36.0" y="111.8" font-family="'JetBrains Mono',ui-monospace,'SF Mono',Menlo,monospace" font-size="11" font-weight="500" fill="#6e7781" text-anchor="start">저는 저녁형 인간이에요 🦉 · 피크 00:00–01:00 · 평균 10 hrs 7 mins/day</text>
<text x="804.0" y="111.8" font-family="'JetBrains Mono',ui-monospace,'SF Mono',Menlo,monospace" font-size="10" font-weight="500" fill="#9aa3ad" text-anchor="end">powered by WakaTime</text>
</svg>
