<svg width="840" height="145" viewBox="0 0 840 145" xmlns="http://www.w3.org/2000/svg" font-family="'Space Grotesk','Segoe UI',system-ui,-apple-system,sans-serif">
<defs>
<linearGradient id="g_claude" x1="0" y1="0" x2="1" y2="0"><stop offset="0" stop-color="#D97757"/><stop offset="1" stop-color="#E8A06F"/></linearGradient>
<linearGradient id="g_blue" x1="0" y1="0" x2="1" y2="0"><stop offset="0" stop-color="#3b82f6"/><stop offset="1" stop-color="#79b8ff"/></linearGradient>
<linearGradient id="g_purple" x1="0" y1="0" x2="1" y2="0"><stop offset="0" stop-color="#8B6FC9"/><stop offset="1" stop-color="#A371F7"/></linearGradient>
<linearGradient id="g_ring" x1="0" y1="0" x2="0" y2="1"><stop offset="0" stop-color="#D97757"/><stop offset="1" stop-color="#E8A06F"/></linearGradient>
<linearGradient id="g_peak" x1="0" y1="0" x2="0" y2="1"><stop offset="0" stop-color="#3b82f6"/><stop offset="1" stop-color="#A371F7"/></linearGradient>
</defs>
<text x="18.0" y="14.0" font-family="'JetBrains Mono',ui-monospace,'SF Mono',Menlo,monospace" font-size="12" font-weight="600" fill="#3b82f6" text-anchor="start" letter-spacing="1.4" style="text-transform:uppercase">Last 30 days</text>
<line x1="125" y1="10" x2="726" y2="10" stroke="#d8dee4"/>
<text x="822.0" y="14.0" font-family="'JetBrains Mono',ui-monospace,'SF Mono',Menlo,monospace" font-size="11" font-weight="500" fill="#6e7781" text-anchor="end">19일 연속 활동 🔥</text>
<rect x="18.0" y="36.0" width="22.0" height="22.0" rx="3" fill="#ebedf0"/>
<rect x="45.0" y="36.0" width="22.0" height="22.0" rx="3" fill="#4a8de0"/>
<rect x="71.9" y="36.0" width="22.0" height="22.0" rx="3" fill="#7fb1ec"/>
<rect x="98.9" y="36.0" width="22.0" height="22.0" rx="3" fill="#7fb1ec"/>
<rect x="125.9" y="36.0" width="22.0" height="22.0" rx="3" fill="#7fb1ec"/>
<rect x="152.8" y="36.0" width="22.0" height="22.0" rx="3" fill="#ebedf0"/>
<rect x="179.8" y="36.0" width="22.0" height="22.0" rx="3" fill="#ebedf0"/>
<rect x="206.8" y="36.0" width="22.0" height="22.0" rx="3" fill="#bcd7f5"/>
<rect x="233.7" y="36.0" width="22.0" height="22.0" rx="3" fill="#bcd7f5"/>
<rect x="260.7" y="36.0" width="22.0" height="22.0" rx="3" fill="#ebedf0"/>
<rect x="287.7" y="36.0" width="22.0" height="22.0" rx="3" fill="#7fb1ec"/>
<rect x="314.6" y="36.0" width="22.0" height="22.0" rx="3" fill="#7fb1ec"/>
<rect x="341.6" y="36.0" width="22.0" height="22.0" rx="3" fill="#7fb1ec"/>
<rect x="368.6" y="36.0" width="22.0" height="22.0" rx="3" fill="#4a8de0"/>
<rect x="395.5" y="36.0" width="22.0" height="22.0" rx="3" fill="#7fb1ec"/>
<rect x="422.5" y="36.0" width="22.0" height="22.0" rx="3" fill="#7fb1ec"/>
<rect x="449.5" y="36.0" width="22.0" height="22.0" rx="3" fill="#7fb1ec"/>
<rect x="476.4" y="36.0" width="22.0" height="22.0" rx="3" fill="#7fb1ec"/>
<rect x="503.4" y="36.0" width="22.0" height="22.0" rx="3" fill="#bcd7f5"/>
<rect x="530.4" y="36.0" width="22.0" height="22.0" rx="3" fill="#bcd7f5"/>
<rect x="557.3" y="36.0" width="22.0" height="22.0" rx="3" fill="#7fb1ec"/>
<rect x="584.3" y="36.0" width="22.0" height="22.0" rx="3" fill="#1f6fdb"/>
<rect x="611.3" y="36.0" width="22.0" height="22.0" rx="3" fill="#1f6fdb"/>
<rect x="638.2" y="36.0" width="22.0" height="22.0" rx="3" fill="#1f6fdb"/>
<rect x="665.2" y="36.0" width="22.0" height="22.0" rx="3" fill="#1f6fdb"/>
<rect x="692.2" y="36.0" width="22.0" height="22.0" rx="3" fill="#4a8de0"/>
<rect x="719.1" y="36.0" width="22.0" height="22.0" rx="3" fill="#bcd7f5"/>
<rect x="746.1" y="36.0" width="22.0" height="22.0" rx="3" fill="#4a8de0"/>
<rect x="773.1" y="36.0" width="22.0" height="22.0" rx="3" fill="#1f6fdb"/>
<rect x="800.0" y="36.0" width="22.0" height="22.0" rx="3" fill="#ebedf0"/>
<text x="18.0" y="78.0" font-family="'JetBrains Mono',ui-monospace,'SF Mono',Menlo,monospace" font-size="10" font-weight="500" fill="#9aa3ad" text-anchor="start">Less</text>
<rect x="52.0" y="70.0" width="11.0" height="11.0" rx="3" fill="#ebedf0"/>
<rect x="67.0" y="70.0" width="11.0" height="11.0" rx="3" fill="#bcd7f5"/>
<rect x="82.0" y="70.0" width="11.0" height="11.0" rx="3" fill="#7fb1ec"/>
<rect x="97.0" y="70.0" width="11.0" height="11.0" rx="3" fill="#4a8de0"/>
<rect x="112.0" y="70.0" width="11.0" height="11.0" rx="3" fill="#1f6fdb"/>
<text x="131.0" y="78.0" font-family="'JetBrains Mono',ui-monospace,'SF Mono',Menlo,monospace" font-size="10" font-weight="500" fill="#9aa3ad" text-anchor="start">More</text>
<line x1="18" y1="100.96666666666667" x2="822" y2="100.96666666666667" stroke="#d8dee4"/>
<text x="18.0" y="119.0" font-family="'JetBrains Mono',ui-monospace,'SF Mono',Menlo,monospace" font-size="11" font-weight="500" fill="#6e7781" text-anchor="start">저는 저녁형 인간이에요 🦉 · 피크 00:00–01:00 · 평균 10 hrs 7 mins/day</text>
<text x="822.0" y="119.0" font-family="'JetBrains Mono',ui-monospace,'SF Mono',Menlo,monospace" font-size="10" font-weight="500" fill="#9aa3ad" text-anchor="end">powered by WakaTime</text>
</svg>
