<svg width="840" height="463" viewBox="0 0 840 463" xmlns="http://www.w3.org/2000/svg" font-family="'Space Grotesk','Segoe UI',system-ui,-apple-system,sans-serif">
<defs>
<linearGradient id="g_claude" x1="0" y1="0" x2="1" y2="0"><stop offset="0" stop-color="#D97757"/><stop offset="1" stop-color="#E8A06F"/></linearGradient>
<linearGradient id="g_blue" x1="0" y1="0" x2="1" y2="0"><stop offset="0" stop-color="#3b82f6"/><stop offset="1" stop-color="#79b8ff"/></linearGradient>
<linearGradient id="g_purple" x1="0" y1="0" x2="1" y2="0"><stop offset="0" stop-color="#8B6FC9"/><stop offset="1" stop-color="#A371F7"/></linearGradient>
<linearGradient id="g_ring" x1="0" y1="0" x2="0" y2="1"><stop offset="0" stop-color="#D97757"/><stop offset="1" stop-color="#E8A06F"/></linearGradient>
<linearGradient id="g_peak" x1="0" y1="0" x2="0" y2="1"><stop offset="0" stop-color="#3b82f6"/><stop offset="1" stop-color="#A371F7"/></linearGradient>
</defs>
<rect x="18.0" y="7.0" width="804.0" height="161.0" rx="14" fill="#ffffff" stroke="#d0d7de" stroke-width="1"/>
<text x="36.0" y="31.0" font-family="'JetBrains Mono',ui-monospace,'SF Mono',Menlo,monospace" font-size="11" font-weight="600" fill="#3b82f6" text-anchor="start" letter-spacing="1.3" style="text-transform:uppercase">LANGUAGES</text>
<text x="36.0" y="62.0" font-family="'JetBrains Mono',ui-monospace,'SF Mono',Menlo,monospace" font-size="13" font-weight="500" fill="#3a424b" text-anchor="start">Kotlin</text>
<rect x="132.0" y="54.0" width="522.0" height="9.0" rx="5" fill="#e7ebef"/>
<rect x="132.0" y="54.0" width="337.0" height="9.0" rx="5" fill="url(#g_purple)"/>
<text x="804.0" y="62.0" font-family="'JetBrains Mono',ui-monospace,'SF Mono',Menlo,monospace" font-size="12" font-weight="500" fill="#6e7781" text-anchor="end">29 hrs · 64.5%</text>
<text x="36.0" y="84.0" font-family="'JetBrains Mono',ui-monospace,'SF Mono',Menlo,monospace" font-size="13" font-weight="500" fill="#3a424b" text-anchor="start">Markdown</text>
<rect x="132.0" y="76.0" width="522.0" height="9.0" rx="5" fill="#e7ebef"/>
<rect x="132.0" y="76.0" width="149.3" height="9.0" rx="5" fill="#3A82A8"/>
<text x="804.0" y="84.0" font-family="'JetBrains Mono',ui-monospace,'SF Mono',Menlo,monospace" font-size="12" font-weight="500" fill="#6e7781" text-anchor="end">12 hrs 51 mins · 28.6%</text>
<text x="36.0" y="106.0" font-family="'JetBrains Mono',ui-monospace,'SF Mono',Menlo,monospace" font-size="13" font-weight="500" fill="#3a424b" text-anchor="start">HTML</text>
<rect x="132.0" y="98.0" width="522.0" height="9.0" rx="5" fill="#e7ebef"/>
<rect x="132.0" y="98.0" width="18.6" height="9.0" rx="5" fill="#D97757"/>
<text x="804.0" y="106.0" font-family="'JetBrains Mono',ui-monospace,'SF Mono',Menlo,monospace" font-size="12" font-weight="500" fill="#6e7781" text-anchor="end">1 hr 35 mins · 3.6%</text>
<text x="36.0" y="128.0" font-family="'JetBrains Mono',ui-monospace,'SF Mono',Menlo,monospace" font-size="13" font-weight="500" fill="#3a424b" text-anchor="start">YAML</text>
<rect x="132.0" y="120.0" width="522.0" height="9.0" rx="5" fill="#e7ebef"/>
<rect x="132.0" y="120.0" width="8.0" height="9.0" rx="5" fill="#6E7681"/>
<text x="804.0" y="128.0" font-family="'JetBrains Mono',ui-monospace,'SF Mono',Menlo,monospace" font-size="12" font-weight="500" fill="#6e7781" text-anchor="end">41 mins · 1.5%</text>
<text x="36.0" y="150.0" font-family="'JetBrains Mono',ui-monospace,'SF Mono',Menlo,monospace" font-size="13" font-weight="500" fill="#3a424b" text-anchor="start">Other</text>
<rect x="132.0" y="142.0" width="522.0" height="9.0" rx="5" fill="#e7ebef"/>
<rect x="132.0" y="142.0" width="7.0" height="9.0" rx="5" fill="#3b82f6"/>
<text x="804.0" y="150.0" font-family="'JetBrains Mono',ui-monospace,'SF Mono',Menlo,monospace" font-size="12" font-weight="500" fill="#6e7781" text-anchor="end">36 mins · 1.3%</text>
<rect x="18.0" y="182.0" width="394.0" height="146.0" rx="14" fill="#ffffff" stroke="#d0d7de" stroke-width="1"/>
<text x="36.0" y="206.0" font-family="'JetBrains Mono',ui-monospace,'SF Mono',Menlo,monospace" font-size="11" font-weight="600" fill="#3b82f6" text-anchor="start" letter-spacing="1.3" style="text-transform:uppercase">EDITORS</text>
<text x="36.0" y="238.0" font-family="'JetBrains Mono',ui-monospace,'SF Mono',Menlo,monospace" font-size="12" font-weight="500" fill="#3a424b" text-anchor="start">Claude Code</text>
<rect x="126.0" y="231.0" width="220.0" height="8.0" rx="4" fill="#e7ebef"/>
<rect x="126.0" y="231.0" width="208.5" height="8.0" rx="4" fill="url(#g_claude)"/>
<text x="394.0" y="238.0" font-family="'JetBrains Mono',ui-monospace,'SF Mono',Menlo,monospace" font-size="11" font-weight="600" fill="#6e7781" text-anchor="end">94.8%</text>
<text x="36.0" y="262.0" font-family="'JetBrains Mono',ui-monospace,'SF Mono',Menlo,monospace" font-size="12" font-weight="500" fill="#3a424b" text-anchor="start">Warp</text>
<rect x="126.0" y="255.0" width="220.0" height="8.0" rx="4" fill="#e7ebef"/>
<rect x="126.0" y="255.0" width="8.1" height="8.0" rx="4" fill="#9aa3ad"/>
<text x="394.0" y="262.0" font-family="'JetBrains Mono',ui-monospace,'SF Mono',Menlo,monospace" font-size="11" font-weight="500" fill="#6e7781" text-anchor="end">3.7%</text>
<text x="36.0" y="286.0" font-family="'JetBrains Mono',ui-monospace,'SF Mono',Menlo,monospace" font-size="12" font-weight="500" fill="#3a424b" text-anchor="start">Slack</text>
<rect x="126.0" y="279.0" width="220.0" height="8.0" rx="4" fill="#e7ebef"/>
<rect x="126.0" y="279.0" width="1.6" height="8.0" rx="4" fill="#9aa3ad"/>
<text x="394.0" y="286.0" font-family="'JetBrains Mono',ui-monospace,'SF Mono',Menlo,monospace" font-size="11" font-weight="500" fill="#6e7781" text-anchor="end">0.7%</text>
<text x="36.0" y="310.0" font-family="'JetBrains Mono',ui-monospace,'SF Mono',Menlo,monospace" font-size="12" font-weight="500" fill="#3a424b" text-anchor="start">Obsidian</text>
<rect x="126.0" y="303.0" width="220.0" height="8.0" rx="4" fill="#e7ebef"/>
<rect x="126.0" y="303.0" width="1.0" height="8.0" rx="4" fill="#9aa3ad"/>
<text x="394.0" y="310.0" font-family="'JetBrains Mono',ui-monospace,'SF Mono',Menlo,monospace" font-size="11" font-weight="500" fill="#6e7781" text-anchor="end">0.4%</text>
<rect x="428.0" y="182.0" width="394.0" height="146.0" rx="14" fill="#ffffff" stroke="#d0d7de" stroke-width="1"/>
<text x="446.0" y="206.0" font-family="'JetBrains Mono',ui-monospace,'SF Mono',Menlo,monospace" font-size="11" font-weight="600" fill="#3b82f6" text-anchor="start" letter-spacing="1.3" style="text-transform:uppercase">PROJECTS</text>
<text x="446.0" y="238.0" font-family="'JetBrains Mono',ui-monospace,'SF Mono',Menlo,monospace" font-size="12" font-weight="500" fill="#3a424b" text-anchor="start">bare</text>
<rect x="532.0" y="231.0" width="224.0" height="8.0" rx="4" fill="#e7ebef"/>
<rect x="532.0" y="231.0" width="125.0" height="8.0" rx="4" fill="url(#g_blue)"/>
<text x="804.0" y="238.0" font-family="'JetBrains Mono',ui-monospace,'SF Mono',Menlo,monospace" font-size="11" font-weight="600" fill="#6e7781" text-anchor="end">55.8%</text>
<text x="446.0" y="262.0" font-family="'JetBrains Mono',ui-monospace,'SF Mono',Menlo,monospace" font-size="12" font-weight="500" fill="#3a424b" text-anchor="start">miner</text>
<rect x="532.0" y="255.0" width="224.0" height="8.0" rx="4" fill="#e7ebef"/>
<rect x="532.0" y="255.0" width="85.3" height="8.0" rx="4" fill="url(#g_purple)"/>
<text x="804.0" y="262.0" font-family="'JetBrains Mono',ui-monospace,'SF Mono',Menlo,monospace" font-size="11" font-weight="600" fill="#6e7781" text-anchor="end">38.1%</text>
<text x="446.0" y="286.0" font-family="'JetBrains Mono',ui-monospace,'SF Mono',Menlo,monospace" font-size="12" font-weight="500" fill="#3a424b" text-anchor="start">설계문서</text>
<rect x="532.0" y="279.0" width="224.0" height="8.0" rx="4" fill="#e7ebef"/>
<rect x="532.0" y="279.0" width="6.0" height="8.0" rx="4" fill="#9aa3ad"/>
<text x="804.0" y="286.0" font-family="'JetBrains Mono',ui-monospace,'SF Mono',Menlo,monospace" font-size="11" font-weight="500" fill="#6e7781" text-anchor="end">2.7%</text>
<text x="446.0" y="310.0" font-family="'JetBrains Mono',ui-monospace,'SF Mono',Menlo,monospace" font-size="12" font-weight="500" fill="#3a424b" text-anchor="start">a20****7</text>
<rect x="532.0" y="303.0" width="224.0" height="8.0" rx="4" fill="#e7ebef"/>
<rect x="532.0" y="303.0" width="3.3" height="8.0" rx="4" fill="#9aa3ad"/>
<text x="804.0" y="310.0" font-family="'JetBrains Mono',ui-monospace,'SF Mono',Menlo,monospace" font-size="11" font-weight="500" fill="#6e7781" text-anchor="end">1.5%</text>
<rect x="18.0" y="342.0" width="804.0" height="114.0" rx="14" fill="#ffffff" stroke="#d0d7de" stroke-width="1"/>
<text x="36.0" y="366.0" font-family="'JetBrains Mono',ui-monospace,'SF Mono',Menlo,monospace" font-size="11" font-weight="600" fill="#3b82f6" text-anchor="start" letter-spacing="1.3" style="text-transform:uppercase">DEPENDENCIES</text>
<text x="804.0" y="366.0" font-family="'JetBrains Mono',ui-monospace,'SF Mono',Menlo,monospace" font-size="10" font-weight="500" fill="#6e7781" text-anchor="end">detected libraries</text>
<text x="36.0" y="390.0" font-family="'JetBrains Mono',ui-monospace,'SF Mono',Menlo,monospace" font-size="12" font-weight="500" fill="#3a424b" text-anchor="start">co****l</text>
<rect x="186.0" y="383.0" width="186.0" height="8.0" rx="4" fill="#e7ebef"/>
<rect x="186.0" y="383.0" width="47.5" height="8.0" rx="4" fill="url(#g_blue)"/>
<text x="412.0" y="390.0" font-family="'JetBrains Mono',ui-monospace,'SF Mono',Menlo,monospace" font-size="11" font-weight="500" fill="#6e7781" text-anchor="end">26%</text>
<text x="428.0" y="390.0" font-family="'JetBrains Mono',ui-monospace,'SF Mono',Menlo,monospace" font-size="12" font-weight="500" fill="#3a424b" text-anchor="start">io.kotest</text>
<rect x="578.0" y="383.0" width="186.0" height="8.0" rx="4" fill="#e7ebef"/>
<rect x="578.0" y="383.0" width="31.9" height="8.0" rx="4" fill="url(#g_blue)"/>
<text x="804.0" y="390.0" font-family="'JetBrains Mono',ui-monospace,'SF Mono',Menlo,monospace" font-size="11" font-weight="500" fill="#6e7781" text-anchor="end">17%</text>
<text x="36.0" y="414.0" font-family="'JetBrains Mono',ui-monospace,'SF Mono',Menlo,monospace" font-size="12" font-weight="500" fill="#3a424b" text-anchor="start">org.springframework</text>
<rect x="186.0" y="407.0" width="186.0" height="8.0" rx="4" fill="#e7ebef"/>
<rect x="186.0" y="407.0" width="18.7" height="8.0" rx="4" fill="url(#g_blue)"/>
<text x="412.0" y="414.0" font-family="'JetBrains Mono',ui-monospace,'SF Mono',Menlo,monospace" font-size="11" font-weight="500" fill="#6e7781" text-anchor="end">10%</text>
<text x="428.0" y="414.0" font-family="'JetBrains Mono',ui-monospace,'SF Mono',Menlo,monospace" font-size="12" font-weight="500" fill="#3a424b" text-anchor="start">run.ravit</text>
<rect x="578.0" y="407.0" width="186.0" height="8.0" rx="4" fill="#e7ebef"/>
<rect x="578.0" y="407.0" width="18.5" height="8.0" rx="4" fill="url(#g_blue)"/>
<text x="804.0" y="414.0" font-family="'JetBrains Mono',ui-monospace,'SF Mono',Menlo,monospace" font-size="11" font-weight="500" fill="#6e7781" text-anchor="end">10%</text>
<text x="36.0" y="438.0" font-family="'JetBrains Mono',ui-monospace,'SF Mono',Menlo,monospace" font-size="12" font-weight="500" fill="#3a424b" text-anchor="start">io.mockk</text>
<rect x="186.0" y="431.0" width="186.0" height="8.0" rx="4" fill="#e7ebef"/>
<rect x="186.0" y="431.0" width="11.1" height="8.0" rx="4" fill="url(#g_blue)"/>
<text x="412.0" y="438.0" font-family="'JetBrains Mono',ui-monospace,'SF Mono',Menlo,monospace" font-size="11" font-weight="500" fill="#6e7781" text-anchor="end">6%</text>
<text x="428.0" y="438.0" font-family="'JetBrains Mono',ui-monospace,'SF Mono',Menlo,monospace" font-size="12" font-weight="500" fill="#3a424b" text-anchor="start">kotlinx.coroutines</text>
<rect x="578.0" y="431.0" width="186.0" height="8.0" rx="4" fill="#e7ebef"/>
<rect x="578.0" y="431.0" width="10.9" height="8.0" rx="4" fill="url(#g_blue)"/>
<text x="804.0" y="438.0" font-family="'JetBrains Mono',ui-monospace,'SF Mono',Menlo,monospace" font-size="11" font-weight="500" fill="#6e7781" text-anchor="end">6%</text>
</svg>
